<mxfile host="app.diagrams.net" agent="Mozilla/5.0 (Macintosh; Intel Mac OS X 10_15_7) AppleWebKit/537.36 (KHTML, like Gecko) Chrome/138.0.0.0 Safari/537.36" version="27.2.0">
  <diagram name="Page-1" id="5KaacPREWQx3gVUIeVoh">
    <mxGraphModel dx="1234" dy="790" grid="0" gridSize="10" guides="1" tooltips="1" connect="1" arrows="1" fold="1" page="1" pageScale="1" pageWidth="850" pageHeight="1100" math="1" shadow="0">
      <root>
        <mxCell id="0" />
        <mxCell id="1" parent="0" />
        <mxCell id="a46ChgIavTmSFneUHiaQ-8" value="" style="shape=trapezoid;perimeter=trapezoidPerimeter;whiteSpace=wrap;html=1;fixedSize=1;strokeWidth=2;fillColor=#FF8000;strokeColor=#36393d;rotation=-180;" vertex="1" parent="1">
          <mxGeometry x="416" y="310" width="120" height="60" as="geometry" />
        </mxCell>
        <mxCell id="a46ChgIavTmSFneUHiaQ-1" value="" style="rounded=0;whiteSpace=wrap;html=1;strokeWidth=2;fillColor=#fff2cc;strokeColor=#000000;" vertex="1" parent="1">
          <mxGeometry x="303" y="223" width="218" height="29" as="geometry" />
        </mxCell>
        <mxCell id="a46ChgIavTmSFneUHiaQ-2" value="" style="rounded=0;whiteSpace=wrap;html=1;strokeWidth=2;fillColor=#fff2cc;strokeColor=#000000;" vertex="1" parent="1">
          <mxGeometry x="302" y="541" width="208" height="29" as="geometry" />
        </mxCell>
        <mxCell id="a46ChgIavTmSFneUHiaQ-3" value="" style="rounded=0;whiteSpace=wrap;html=1;fillColor=#1ba1e2;fontColor=#ffffff;strokeColor=#000000;strokeWidth=2;" vertex="1" parent="1">
          <mxGeometry x="265" y="310" width="125" height="167" as="geometry" />
        </mxCell>
        <mxCell id="a46ChgIavTmSFneUHiaQ-4" value="&lt;font style=&quot;font-size: 18px;&quot;&gt;预训练权重&lt;/font&gt;" style="text;html=1;align=center;verticalAlign=middle;whiteSpace=wrap;rounded=0;" vertex="1" parent="1">
          <mxGeometry x="276" y="355" width="103" height="30" as="geometry" />
        </mxCell>
        <mxCell id="a46ChgIavTmSFneUHiaQ-5" value="&lt;font style=&quot;font-size: 18px;&quot;&gt;$$W \in \mathbb{R}^{d \times d}$$&lt;/font&gt;" style="text;html=1;align=center;verticalAlign=middle;whiteSpace=wrap;rounded=0;" vertex="1" parent="1">
          <mxGeometry x="283" y="409" width="100" height="43" as="geometry" />
        </mxCell>
        <mxCell id="a46ChgIavTmSFneUHiaQ-6" value="&lt;font style=&quot;font-size: 16px;&quot;&gt;$$B = 0$$&lt;/font&gt;" style="text;html=1;align=center;verticalAlign=middle;whiteSpace=wrap;rounded=0;" vertex="1" parent="1">
          <mxGeometry x="446" y="325" width="60" height="30" as="geometry" />
        </mxCell>
        <mxCell id="a46ChgIavTmSFneUHiaQ-7" value="" style="shape=trapezoid;perimeter=trapezoidPerimeter;whiteSpace=wrap;html=1;fixedSize=1;strokeWidth=2;fillColor=#FF8000;" vertex="1" parent="1">
          <mxGeometry x="414" y="416" width="120" height="60" as="geometry" />
        </mxCell>
        <mxCell id="a46ChgIavTmSFneUHiaQ-9" value="&lt;font style=&quot;font-size: 14px;&quot;&gt;$$A = \mathcal{N}(0, \sigma^2)$$&lt;/font&gt;" style="text;html=1;align=center;verticalAlign=middle;whiteSpace=wrap;rounded=0;" vertex="1" parent="1">
          <mxGeometry x="431" y="422.5" width="86" height="47" as="geometry" />
        </mxCell>
        <mxCell id="a46ChgIavTmSFneUHiaQ-10" style="edgeStyle=orthogonalEdgeStyle;rounded=0;orthogonalLoop=1;jettySize=auto;html=1;exitX=0.5;exitY=1;exitDx=0;exitDy=0;" edge="1" parent="1" source="a46ChgIavTmSFneUHiaQ-4" target="a46ChgIavTmSFneUHiaQ-4">
          <mxGeometry relative="1" as="geometry" />
        </mxCell>
        <mxCell id="a46ChgIavTmSFneUHiaQ-11" value="&lt;font style=&quot;font-size: 16px;&quot;&gt;h&lt;/font&gt;" style="text;html=1;align=center;verticalAlign=middle;whiteSpace=wrap;rounded=0;" vertex="1" parent="1">
          <mxGeometry x="259" y="222" width="44" height="30" as="geometry" />
        </mxCell>
        <mxCell id="a46ChgIavTmSFneUHiaQ-12" value="&lt;span style=&quot;font-size: 16px;&quot;&gt;x&lt;/span&gt;" style="text;html=1;align=center;verticalAlign=middle;whiteSpace=wrap;rounded=0;" vertex="1" parent="1">
          <mxGeometry x="259" y="541" width="43" height="30" as="geometry" />
        </mxCell>
        <mxCell id="a46ChgIavTmSFneUHiaQ-13" value="" style="shape=flexArrow;endArrow=classic;html=1;rounded=0;" edge="1" parent="1">
          <mxGeometry width="50" height="50" relative="1" as="geometry">
            <mxPoint x="316" y="298" as="sourcePoint" />
            <mxPoint x="358" y="265" as="targetPoint" />
          </mxGeometry>
        </mxCell>
        <mxCell id="a46ChgIavTmSFneUHiaQ-14" value="" style="shape=flexArrow;endArrow=classic;html=1;rounded=0;" edge="1" parent="1">
          <mxGeometry width="50" height="50" relative="1" as="geometry">
            <mxPoint x="493" y="299" as="sourcePoint" />
            <mxPoint x="455" y="262" as="targetPoint" />
          </mxGeometry>
        </mxCell>
        <mxCell id="a46ChgIavTmSFneUHiaQ-15" value="" style="shape=cross;whiteSpace=wrap;html=1;" vertex="1" parent="1">
          <mxGeometry x="391.5" y="265" width="31" height="32" as="geometry" />
        </mxCell>
        <mxCell id="a46ChgIavTmSFneUHiaQ-16" value="" style="shape=flexArrow;endArrow=classic;html=1;rounded=0;" edge="1" parent="1">
          <mxGeometry width="50" height="50" relative="1" as="geometry">
            <mxPoint x="349" y="518" as="sourcePoint" />
            <mxPoint x="320" y="483" as="targetPoint" />
          </mxGeometry>
        </mxCell>
        <mxCell id="a46ChgIavTmSFneUHiaQ-18" value="" style="shape=flexArrow;endArrow=classic;html=1;rounded=0;" edge="1" parent="1">
          <mxGeometry width="50" height="50" relative="1" as="geometry">
            <mxPoint x="458" y="516" as="sourcePoint" />
            <mxPoint x="492" y="484" as="targetPoint" />
          </mxGeometry>
        </mxCell>
        <mxCell id="a46ChgIavTmSFneUHiaQ-20" value="" style="shape=partialRectangle;whiteSpace=wrap;html=1;bottom=1;right=1;left=1;top=0;fillColor=none;routingCenterX=-0.5;rotation=-180;" vertex="1" parent="1">
          <mxGeometry x="305.5" y="527" width="201" height="9" as="geometry" />
        </mxCell>
        <mxCell id="a46ChgIavTmSFneUHiaQ-21" value="" style="line;strokeWidth=1;direction=south;html=1;" vertex="1" parent="1">
          <mxGeometry x="401" y="517" width="10" height="10" as="geometry" />
        </mxCell>
        <mxCell id="a46ChgIavTmSFneUHiaQ-23" value="&lt;span style=&quot;font-size: 16px;&quot;&gt;d&lt;/span&gt;" style="text;html=1;align=center;verticalAlign=middle;whiteSpace=wrap;rounded=0;" vertex="1" parent="1">
          <mxGeometry x="376" y="492" width="60" height="30" as="geometry" />
        </mxCell>
        <mxCell id="a46ChgIavTmSFneUHiaQ-24" value="" style="shape=partialRectangle;whiteSpace=wrap;html=1;bottom=1;right=1;left=1;top=0;fillColor=none;routingCenterX=-0.5;rotation=-180;" vertex="1" parent="1">
          <mxGeometry x="434" y="400" width="80" height="11" as="geometry" />
        </mxCell>
        <mxCell id="a46ChgIavTmSFneUHiaQ-25" value="" style="line;strokeWidth=1;direction=south;html=1;" vertex="1" parent="1">
          <mxGeometry x="469" y="392" width="10" height="8" as="geometry" />
        </mxCell>
        <mxCell id="a46ChgIavTmSFneUHiaQ-26" value="&lt;span style=&quot;font-size: 16px;&quot;&gt;r&lt;/span&gt;" style="text;html=1;align=center;verticalAlign=middle;whiteSpace=wrap;rounded=0;" vertex="1" parent="1">
          <mxGeometry x="446" y="365" width="60" height="30" as="geometry" />
        </mxCell>
      </root>
    </mxGraphModel>
  </diagram>
</mxfile>
